grf
version=1
nRows=7
nColumns=37
inDegrees=no
endheader
time	ground_force_1_vx	ground_force_1_vy	ground_force_1_vz	ground_force_1_px	ground_force_1_py	ground_force_1_pz	ground_moment_1_mx	ground_moment_1_my	ground_moment_1_mz	ground_force_2_vx	ground_force_2_vy	ground_force_2_vz	ground_force_2_px	ground_force_2_py	ground_force_2_pz	ground_moment_2_mx	ground_moment_2_my	ground_moment_2_mz	ground_force_3_vx	ground_force_3_vy	ground_force_3_vz	ground_force_3_px	ground_force_3_py	ground_force_3_pz	ground_moment_3_mx	ground_moment_3_my	ground_moment_3_mz	ground_force_4_vx	ground_force_4_vy	ground_force_4_vz	ground_force_4_px	ground_force_4_py	ground_force_4_pz	ground_moment_4_mx	ground_moment_4_my	ground_moment_4_mz
      3.32000000	      0.00000000	     -0.00000000	      0.00000000	      0.00000000	      0.00000000	      0.00000000	      0.00000000	      0.00000000	      0.00000000	     10.00351620	     37.15724945	   -369.82312012	   -339.32540861	  -1082.43567432	      0.00000000	      0.00000000	      0.00000000	   7304.31941195	     -3.87042300	    -48.16803326	   -431.46517944	   -344.75255465	   -633.24461383	      0.00000000	      0.00000000	     -0.00000000	 -10701.56169348	    -35.19049694	     16.18336794	     77.12233734	    600.50084768	   -559.34956428	      0.00000000	      0.00000000	     -0.00000000	    -98.06367592
      3.33000000	      0.00000000	     -0.00000000	      0.00000000	      0.00000000	      0.00000000	      0.00000000	      0.00000000	      0.00000000	      0.00000000	      9.63525105	     36.76655197	   -372.07608032	   -340.72502485	  -1082.01334568	      0.00000000	      0.00000000	      0.00000000	   7033.39739194	     -3.16059325	    -48.83094378	   -435.34878540	   -345.79651715	   -632.45845913	      0.00000000	      0.00000000	     -0.00000000	 -10866.43537564	    -35.32494215	     15.95828079	     74.00625610	    611.46634745	   -564.05656614	      0.00000000	      0.00000000	      0.00000000	    -85.17415906
      3.34000000	      0.00000000	     -0.00000000	      0.00000000	      0.00000000	      0.00000000	      0.00000000	      0.00000000	      0.00000000	      0.00000000	     10.19227314	     36.65485382	   -374.54708862	   -342.50456724	  -1079.84377820	      0.00000000	     -0.00000000	      0.00000000	   6947.74970958	     -1.30856607	    -48.76488483	   -441.58984375	   -347.58149980	   -632.96433811	      0.00000000	      0.00000000	     -0.00000000	 -11045.24969198	    -35.31368874	     16.48680614	     75.32284546	    607.89507779	   -569.56979188	      0.00000000	      0.00000000	      0.00000000	     79.91858545
      3.35000000	      0.00000000	     -0.00000000	      0.00000000	      0.00000000	      0.00000000	      0.00000000	      0.00000000	      0.00000000	      0.00000000	     11.48572922	     37.25650787	   -384.83294678	   -342.66017034	  -1082.28429591	      0.00000000	      0.00000000	      0.00000000	   7097.26210033	      0.55421893	    -48.63230901	   -446.52114868	   -348.92275833	   -634.02168958	      0.00000000	      0.00000000	     -0.00000000	 -11266.28922295	    -35.06771707	     16.40772172	     76.46331787	    601.11491591	   -561.53350317	      0.00000000	      0.00000000	     -0.00000000	    -18.59098385
      3.36000000	      0.00000000	     -0.00000000	      0.00000000	      0.00000000	      0.00000000	      0.00000000	      0.00000000	      0.00000000	      0.00000000	     12.08762550	     38.96123123	   -392.91113281	   -344.03718736	  -1081.00816720	      0.00000000	      0.00000000	      0.00000000	   7069.56150423	      2.17311269	    -48.45585651	   -452.50048828	   -350.64539482	   -634.36728627	      0.00000000	      0.00000000	     -0.00000000	 -11297.53132649	    -35.21267940	     16.26174090	     74.75280762	    608.93048993	   -566.39734521	      0.00000000	      0.00000000	      0.00000000	     29.50184015
      3.37000000	      0.00000000	     -0.00000000	      0.00000000	      0.00000000	      0.00000000	      0.00000000	      0.00000000	      0.00000000	      0.00000000	     12.60124779	     41.67816162	   -398.82949829	   -346.39597149	  -1080.59556380	      0.00000000	      0.00000000	      0.00000000	   7224.77565631	      4.10308180	    -48.03585088	   -460.74795532	   -351.83864649	   -633.94899409	      0.00000000	      0.00000000	     -0.00000000	 -11667.51188686	    -35.26933527	     16.38453983	     76.11209106	    603.29431328	   -562.90372894	      0.00000000	      0.00000000	      0.00000000	     34.11043616
      3.38000000	      0.00000000	     -0.00000000	      0.00000000	      0.00000000	      0.00000000	      0.00000000	      0.00000000	      0.00000000	      0.00000000	     13.63784885	     43.72898483	   -408.36593628	   -346.82001968	  -1081.42868563	      0.00000000	      0.00000000	      0.00000000	   7400.27343810	      7.07431805	    -47.70493378	   -470.73941040	   -353.79657865	   -634.84221097	      0.00000000	      0.00000000	     -0.00000000	 -11927.57342582	    -35.53786710	     16.02608991	     76.81369019	    602.21533008	   -561.41313134	      0.00000000	      0.00000000	     -0.00000000	    -27.39340634
